<svg xmlns="http://www.w3.org/2000/svg" xmlns:xlink="http://www.w3.org/1999/xlink" width="171" zoomAndPan="magnify" viewBox="0 0 128.25 30.000001" height="40" preserveAspectRatio="xMidYMid meet" version="1.0"><defs><g/><clipPath id="f45121e86b"><path d="M 1.707031 3 L 24 3 L 24 26 L 1.707031 26 Z M 1.707031 3 " clip-rule="nonzero"/></clipPath><clipPath id="1fa16decba"><path d="M 21.90625 14.515625 C 21.90625 19.660156 17.738281 23.832031 12.59375 23.832031 C 7.449219 23.832031 3.277344 19.660156 3.277344 14.515625 C 3.277344 9.371094 7.449219 5.203125 12.59375 5.203125 C 17.738281 5.203125 21.90625 9.371094 21.90625 14.515625 Z M 23.480469 14.515625 C 23.480469 20.527344 18.605469 25.402344 12.59375 25.402344 C 6.578125 25.402344 1.707031 20.527344 1.707031 14.515625 C 1.707031 8.503906 6.578125 3.628906 12.59375 3.628906 C 18.605469 3.628906 23.480469 8.503906 23.480469 14.515625 Z M 18.597656 9.636719 C 18.597656 10.257812 18.09375 10.761719 17.472656 10.761719 C 16.851562 10.761719 16.347656 10.257812 16.347656 9.636719 C 16.347656 9.015625 16.851562 8.507812 17.472656 8.507812 C 18.09375 8.507812 18.597656 9.015625 18.597656 9.636719 Z M 9.316406 15.394531 C 9.800781 17.203125 11.660156 18.277344 13.46875 17.789062 C 15.277344 17.304688 16.351562 15.449219 15.867188 13.636719 C 15.382812 11.828125 13.523438 10.757812 11.714844 11.242188 C 9.90625 11.726562 8.832031 13.585938 9.316406 15.394531 Z M 7.796875 15.800781 C 8.507812 18.449219 11.230469 20.019531 13.878906 19.308594 C 16.523438 18.601562 18.097656 15.878906 17.386719 13.230469 C 16.675781 10.585938 13.957031 9.011719 11.308594 9.722656 C 8.660156 10.433594 7.089844 13.152344 7.796875 15.800781 Z M 7.796875 15.800781 " clip-rule="evenodd"/></clipPath><linearGradient x1="15" gradientTransform="matrix(0.725806, 0, 0, 0.725806, 1.705643, 1.451615)" y1="3" x2="15" gradientUnits="userSpaceOnUse" y2="32.999999" id="7515efe535"><stop stop-opacity="1" stop-color="rgb(52.89917%, 49.398804%, 100%)" offset="0"/><stop stop-opacity="1" stop-color="rgb(52.796936%, 49.28894%, 100%)" offset="0.0078125"/><stop stop-opacity="1" stop-color="rgb(52.590942%, 49.07074%, 100%)" offset="0.015625"/><stop stop-opacity="1" stop-color="rgb(52.386475%, 48.852539%, 100%)" offset="0.0234375"/><stop stop-opacity="1" stop-color="rgb(52.180481%, 48.632812%, 100%)" offset="0.03125"/><stop stop-opacity="1" stop-color="rgb(51.976013%, 48.414612%, 100%)" offset="0.0390625"/><stop stop-opacity="1" stop-color="rgb(51.771545%, 48.196411%, 100%)" offset="0.046875"/><stop stop-opacity="1" stop-color="rgb(51.565552%, 47.97821%, 100%)" offset="0.0546875"/><stop stop-opacity="1" stop-color="rgb(51.361084%, 47.758484%, 100%)" offset="0.0625"/><stop stop-opacity="1" stop-color="rgb(51.156616%, 47.540283%, 100%)" offset="0.0703125"/><stop stop-opacity="1" stop-color="rgb(50.950623%, 47.322083%, 100%)" offset="0.078125"/><stop stop-opacity="1" stop-color="rgb(50.746155%, 47.103882%, 100%)" offset="0.0859375"/><stop stop-opacity="1" stop-color="rgb(50.540161%, 46.884155%, 100%)" offset="0.09375"/><stop stop-opacity="1" stop-color="rgb(50.335693%, 46.665955%, 100%)" offset="0.101562"/><stop stop-opacity="1" stop-color="rgb(50.131226%, 46.447754%, 100%)" offset="0.109375"/><stop stop-opacity="1" stop-color="rgb(49.925232%, 46.228027%, 100%)" offset="0.117188"/><stop stop-opacity="1" stop-color="rgb(49.720764%, 46.009827%, 100%)" offset="0.125"/><stop stop-opacity="1" stop-color="rgb(49.514771%, 45.791626%, 100%)" offset="0.132813"/><stop stop-opacity="1" stop-color="rgb(49.310303%, 45.573425%, 100%)" offset="0.140625"/><stop stop-opacity="1" stop-color="rgb(49.105835%, 45.353699%, 100%)" offset="0.148438"/><stop stop-opacity="1" stop-color="rgb(48.899841%, 45.135498%, 100%)" offset="0.15625"/><stop stop-opacity="1" stop-color="rgb(48.695374%, 44.917297%, 100%)" offset="0.164063"/><stop stop-opacity="1" stop-color="rgb(48.490906%, 44.699097%, 100%)" offset="0.171875"/><stop stop-opacity="1" stop-color="rgb(48.284912%, 44.47937%, 100%)" offset="0.179688"/><stop stop-opacity="1" stop-color="rgb(48.080444%, 44.261169%, 100%)" offset="0.1875"/><stop stop-opacity="1" stop-color="rgb(47.874451%, 44.042969%, 100%)" offset="0.195313"/><stop stop-opacity="1" stop-color="rgb(47.669983%, 43.824768%, 100%)" offset="0.203125"/><stop stop-opacity="1" stop-color="rgb(47.465515%, 43.605042%, 100%)" offset="0.210938"/><stop stop-opacity="1" stop-color="rgb(47.259521%, 43.386841%, 100%)" offset="0.21875"/><stop stop-opacity="1" stop-color="rgb(47.055054%, 43.16864%, 100%)" offset="0.226563"/><stop stop-opacity="1" stop-color="rgb(46.84906%, 42.948914%, 100%)" offset="0.234375"/><stop stop-opacity="1" stop-color="rgb(46.644592%, 42.730713%, 100%)" offset="0.242188"/><stop stop-opacity="1" stop-color="rgb(46.440125%, 42.512512%, 100%)" offset="0.25"/><stop stop-opacity="1" stop-color="rgb(46.234131%, 42.294312%, 100%)" offset="0.257813"/><stop stop-opacity="1" stop-color="rgb(46.029663%, 42.074585%, 100%)" offset="0.265625"/><stop stop-opacity="1" stop-color="rgb(45.825195%, 41.856384%, 100%)" offset="0.273438"/><stop stop-opacity="1" stop-color="rgb(45.619202%, 41.638184%, 100%)" offset="0.28125"/><stop stop-opacity="1" stop-color="rgb(45.414734%, 41.419983%, 100%)" offset="0.289063"/><stop stop-opacity="1" stop-color="rgb(45.20874%, 41.200256%, 100%)" offset="0.296875"/><stop stop-opacity="1" stop-color="rgb(45.004272%, 40.982056%, 100%)" offset="0.304688"/><stop stop-opacity="1" stop-color="rgb(44.799805%, 40.763855%, 100%)" offset="0.3125"/><stop stop-opacity="1" stop-color="rgb(44.593811%, 40.544128%, 100%)" offset="0.320313"/><stop stop-opacity="1" stop-color="rgb(44.389343%, 40.325928%, 100%)" offset="0.328125"/><stop stop-opacity="1" stop-color="rgb(44.18335%, 40.107727%, 100%)" offset="0.335938"/><stop stop-opacity="1" stop-color="rgb(43.978882%, 39.889526%, 100%)" offset="0.34375"/><stop stop-opacity="1" stop-color="rgb(43.774414%, 39.6698%, 100%)" offset="0.351563"/><stop stop-opacity="1" stop-color="rgb(43.56842%, 39.451599%, 100%)" offset="0.359375"/><stop stop-opacity="1" stop-color="rgb(43.363953%, 39.233398%, 100%)" offset="0.367188"/><stop stop-opacity="1" stop-color="rgb(43.159485%, 39.015198%, 100%)" offset="0.375"/><stop stop-opacity="1" stop-color="rgb(42.953491%, 38.795471%, 100%)" offset="0.382813"/><stop stop-opacity="1" stop-color="rgb(42.749023%, 38.577271%, 100%)" offset="0.390625"/><stop stop-opacity="1" stop-color="rgb(42.54303%, 38.35907%, 100%)" offset="0.398438"/><stop stop-opacity="1" stop-color="rgb(42.338562%, 38.139343%, 100%)" offset="0.40625"/><stop stop-opacity="1" stop-color="rgb(42.134094%, 37.921143%, 100%)" offset="0.414063"/><stop stop-opacity="1" stop-color="rgb(41.928101%, 37.702942%, 100%)" offset="0.421875"/><stop stop-opacity="1" stop-color="rgb(41.723633%, 37.484741%, 100%)" offset="0.429688"/><stop stop-opacity="1" stop-color="rgb(41.517639%, 37.265015%, 100%)" offset="0.4375"/><stop stop-opacity="1" stop-color="rgb(41.313171%, 37.046814%, 100%)" offset="0.445313"/><stop stop-opacity="1" stop-color="rgb(41.108704%, 36.828613%, 100%)" offset="0.453125"/><stop stop-opacity="1" stop-color="rgb(40.90271%, 36.610413%, 100%)" offset="0.460938"/><stop stop-opacity="1" stop-color="rgb(40.644836%, 36.329651%, 100%)" offset="0.46875"/><stop stop-opacity="1" stop-color="rgb(40.332031%, 35.98938%, 100%)" offset="0.476563"/><stop stop-opacity="1" stop-color="rgb(40.0177%, 35.646057%, 100%)" offset="0.484375"/><stop stop-opacity="1" stop-color="rgb(39.704895%, 35.30426%, 100%)" offset="0.492188"/><stop stop-opacity="1" stop-color="rgb(39.39209%, 34.962463%, 100%)" offset="0.5"/><stop stop-opacity="1" stop-color="rgb(39.079285%, 34.620667%, 100%)" offset="0.507812"/><stop stop-opacity="1" stop-color="rgb(38.766479%, 34.27887%, 100%)" offset="0.515625"/><stop stop-opacity="1" stop-color="rgb(38.453674%, 33.937073%, 100%)" offset="0.523438"/><stop stop-opacity="1" stop-color="rgb(38.139343%, 33.59375%, 100%)" offset="0.53125"/><stop stop-opacity="1" stop-color="rgb(37.826538%, 33.251953%, 100%)" offset="0.539062"/><stop stop-opacity="1" stop-color="rgb(37.513733%, 32.910156%, 100%)" offset="0.546875"/><stop stop-opacity="1" stop-color="rgb(37.200928%, 32.568359%, 100%)" offset="0.554688"/><stop stop-opacity="1" stop-color="rgb(36.888123%, 32.226562%, 100%)" offset="0.5625"/><stop stop-opacity="1" stop-color="rgb(36.573792%, 31.88324%, 100%)" offset="0.570312"/><stop stop-opacity="1" stop-color="rgb(36.260986%, 31.541443%, 100%)" offset="0.578125"/><stop stop-opacity="1" stop-color="rgb(35.948181%, 31.199646%, 100%)" offset="0.585938"/><stop stop-opacity="1" stop-color="rgb(35.635376%, 30.857849%, 100%)" offset="0.59375"/><stop stop-opacity="1" stop-color="rgb(35.322571%, 30.516052%, 100%)" offset="0.601562"/><stop stop-opacity="1" stop-color="rgb(35.009766%, 30.174255%, 100%)" offset="0.609375"/><stop stop-opacity="1" stop-color="rgb(34.695435%, 29.830933%, 100%)" offset="0.617188"/><stop stop-opacity="1" stop-color="rgb(34.382629%, 29.489136%, 100%)" offset="0.625"/><stop stop-opacity="1" stop-color="rgb(34.069824%, 29.147339%, 100%)" offset="0.632812"/><stop stop-opacity="1" stop-color="rgb(33.757019%, 28.805542%, 100%)" offset="0.640625"/><stop stop-opacity="1" stop-color="rgb(33.444214%, 28.463745%, 100%)" offset="0.648438"/><stop stop-opacity="1" stop-color="rgb(33.131409%, 28.120422%, 100%)" offset="0.65625"/><stop stop-opacity="1" stop-color="rgb(32.817078%, 27.778625%, 100%)" offset="0.664062"/><stop stop-opacity="1" stop-color="rgb(32.504272%, 27.436829%, 100%)" offset="0.671875"/><stop stop-opacity="1" stop-color="rgb(32.191467%, 27.095032%, 100%)" offset="0.679688"/><stop stop-opacity="1" stop-color="rgb(31.878662%, 26.753235%, 100%)" offset="0.6875"/><stop stop-opacity="1" stop-color="rgb(31.565857%, 26.411438%, 100%)" offset="0.695312"/><stop stop-opacity="1" stop-color="rgb(31.251526%, 26.068115%, 100%)" offset="0.703125"/><stop stop-opacity="1" stop-color="rgb(30.938721%, 25.726318%, 100%)" offset="0.710938"/><stop stop-opacity="1" stop-color="rgb(30.625916%, 25.384521%, 100%)" offset="0.71875"/><stop stop-opacity="1" stop-color="rgb(30.31311%, 25.042725%, 100%)" offset="0.726562"/><stop stop-opacity="1" stop-color="rgb(30.000305%, 24.700928%, 100%)" offset="0.734375"/><stop stop-opacity="1" stop-color="rgb(29.6875%, 24.359131%, 100%)" offset="0.742188"/><stop stop-opacity="1" stop-color="rgb(29.373169%, 24.015808%, 100%)" offset="0.75"/><stop stop-opacity="1" stop-color="rgb(29.060364%, 23.674011%, 100%)" offset="0.757812"/><stop stop-opacity="1" stop-color="rgb(28.747559%, 23.332214%, 100%)" offset="0.765625"/><stop stop-opacity="1" stop-color="rgb(28.434753%, 22.990417%, 100%)" offset="0.773438"/><stop stop-opacity="1" stop-color="rgb(28.121948%, 22.648621%, 100%)" offset="0.78125"/><stop stop-opacity="1" stop-color="rgb(27.807617%, 22.305298%, 100%)" offset="0.789062"/><stop stop-opacity="1" stop-color="rgb(27.494812%, 21.963501%, 100%)" offset="0.796875"/><stop stop-opacity="1" stop-color="rgb(27.182007%, 21.621704%, 100%)" offset="0.804688"/><stop stop-opacity="1" stop-color="rgb(26.869202%, 21.279907%, 100%)" offset="0.8125"/><stop stop-opacity="1" stop-color="rgb(26.556396%, 20.93811%, 100%)" offset="0.820312"/><stop stop-opacity="1" stop-color="rgb(26.243591%, 20.596313%, 100%)" offset="0.828125"/><stop stop-opacity="1" stop-color="rgb(25.92926%, 20.252991%, 100%)" offset="0.835938"/><stop stop-opacity="1" stop-color="rgb(25.616455%, 19.911194%, 100%)" offset="0.84375"/><stop stop-opacity="1" stop-color="rgb(25.30365%, 19.569397%, 100%)" offset="0.851562"/><stop stop-opacity="1" stop-color="rgb(24.990845%, 19.2276%, 100%)" offset="0.859375"/><stop stop-opacity="1" stop-color="rgb(24.67804%, 18.885803%, 100%)" offset="0.867188"/><stop stop-opacity="1" stop-color="rgb(24.363708%, 18.54248%, 100%)" offset="0.875"/><stop stop-opacity="1" stop-color="rgb(24.050903%, 18.200684%, 100%)" offset="0.882812"/><stop stop-opacity="1" stop-color="rgb(23.738098%, 17.858887%, 100%)" offset="0.890625"/><stop stop-opacity="1" stop-color="rgb(23.425293%, 17.51709%, 100%)" offset="0.898438"/><stop stop-opacity="1" stop-color="rgb(23.112488%, 17.175293%, 100%)" offset="0.90625"/><stop stop-opacity="1" stop-color="rgb(22.799683%, 16.833496%, 100%)" offset="0.914062"/><stop stop-opacity="1" stop-color="rgb(22.485352%, 16.490173%, 100%)" offset="0.921875"/><stop stop-opacity="1" stop-color="rgb(22.172546%, 16.148376%, 100%)" offset="0.929688"/><stop stop-opacity="1" stop-color="rgb(21.859741%, 15.80658%, 100%)" offset="0.9375"/><stop stop-opacity="1" stop-color="rgb(21.546936%, 15.464783%, 100%)" offset="0.945312"/><stop stop-opacity="1" stop-color="rgb(21.234131%, 15.122986%, 100%)" offset="0.953125"/><stop stop-opacity="1" stop-color="rgb(20.9198%, 14.781189%, 100%)" offset="0.960938"/><stop stop-opacity="1" stop-color="rgb(20.606995%, 14.437866%, 100%)" offset="0.96875"/><stop stop-opacity="1" stop-color="rgb(20.294189%, 14.096069%, 100%)" offset="0.976562"/><stop stop-opacity="1" stop-color="rgb(19.981384%, 13.754272%, 100%)" offset="0.984375"/><stop stop-opacity="1" stop-color="rgb(19.668579%, 13.412476%, 100%)" offset="0.992188"/><stop stop-opacity="1" stop-color="rgb(19.355774%, 13.070679%, 100%)" offset="1"/></linearGradient></defs><g clip-path="url(#f45121e86b)"><g clip-path="url(#1fa16decba)"><path fill="url(#7515efe535)" d="M 1.707031 3.628906 L 1.707031 25.402344 L 23.480469 25.402344 L 23.480469 3.628906 Z M 1.707031 3.628906 " fill-rule="nonzero"/></g></g><g fill="#ffffff" fill-opacity="1"><g transform="translate(22.274651, 19.721225)"><g/></g></g><g fill="#ffffff" fill-opacity="1"><g transform="translate(27.067288, 19.721225)"><g><path d="M 0.8125 -0.34375 L 0.8125 -2.8125 C 1.144531 -2.71875 1.5625 -2.640625 2.0625 -2.578125 C 2.570312 -2.515625 3.101562 -2.460938 3.65625 -2.421875 C 4.207031 -2.390625 4.722656 -2.375 5.203125 -2.375 C 6.328125 -2.375 7.140625 -2.476562 7.640625 -2.6875 C 8.148438 -2.894531 8.40625 -3.25 8.40625 -3.75 C 8.40625 -3.9375 8.335938 -4.125 8.203125 -4.3125 C 8.078125 -4.5 7.789062 -4.695312 7.34375 -4.90625 C 6.894531 -5.125 6.179688 -5.335938 5.203125 -5.546875 C 4.859375 -5.640625 4.441406 -5.753906 3.953125 -5.890625 C 3.460938 -6.023438 2.984375 -6.226562 2.515625 -6.5 C 2.054688 -6.769531 1.671875 -7.144531 1.359375 -7.625 C 1.046875 -8.113281 0.890625 -8.742188 0.890625 -9.515625 C 0.890625 -10.429688 1.128906 -11.175781 1.609375 -11.75 C 2.085938 -12.320312 2.738281 -12.742188 3.5625 -13.015625 C 4.382812 -13.296875 5.316406 -13.4375 6.359375 -13.4375 C 6.921875 -13.4375 7.578125 -13.394531 8.328125 -13.3125 C 9.085938 -13.238281 9.757812 -13.117188 10.34375 -12.953125 L 10.34375 -10.5 C 10.070312 -10.582031 9.695312 -10.65625 9.21875 -10.71875 C 8.75 -10.789062 8.242188 -10.84375 7.703125 -10.875 C 7.171875 -10.914062 6.671875 -10.9375 6.203125 -10.9375 C 5.117188 -10.9375 4.378906 -10.816406 3.984375 -10.578125 C 3.585938 -10.347656 3.390625 -10.015625 3.390625 -9.578125 C 3.390625 -9.097656 3.601562 -8.742188 4.03125 -8.515625 C 4.46875 -8.296875 5.222656 -8.039062 6.296875 -7.75 C 6.859375 -7.601562 7.410156 -7.445312 7.953125 -7.28125 C 8.503906 -7.113281 9 -6.898438 9.4375 -6.640625 C 9.882812 -6.378906 10.238281 -6.03125 10.5 -5.59375 C 10.769531 -5.15625 10.90625 -4.59375 10.90625 -3.90625 C 10.90625 -2.925781 10.644531 -2.140625 10.125 -1.546875 C 9.601562 -0.960938 8.898438 -0.535156 8.015625 -0.265625 C 7.140625 -0.00390625 6.160156 0.125 5.078125 0.125 C 4.429688 0.125 3.707031 0.0820312 2.90625 0 C 2.113281 -0.0820312 1.414062 -0.195312 0.8125 -0.34375 Z M 0.8125 -0.34375 "/></g></g></g><g fill="#ffffff" fill-opacity="1"><g transform="translate(38.76568, 19.721225)"><g><path d="M 11.984375 -5.4375 L 11.984375 0 L 9.359375 0 L 9.359375 -5.4375 C 9.359375 -6.351562 9.132812 -7.101562 8.6875 -7.6875 C 8.25 -8.269531 7.566406 -8.5625 6.640625 -8.5625 C 5.710938 -8.5625 5.023438 -8.269531 4.578125 -7.6875 C 4.140625 -7.101562 3.921875 -6.351562 3.921875 -5.4375 L 3.921875 0 L 1.3125 0 L 1.3125 -5.4375 C 1.3125 -6.46875 1.519531 -7.40625 1.9375 -8.25 C 2.351562 -9.09375 2.960938 -9.757812 3.765625 -10.25 C 4.566406 -10.75 5.523438 -11 6.640625 -11 C 7.773438 -11 8.738281 -10.75 9.53125 -10.25 C 10.320312 -9.757812 10.925781 -9.09375 11.34375 -8.25 C 11.769531 -7.40625 11.984375 -6.46875 11.984375 -5.4375 Z M 11.984375 -5.4375 "/></g></g></g><g fill="#ffffff" fill-opacity="1"><g transform="translate(51.880078, 19.721225)"><g><path d="M 9.171875 -5.4375 C 9.128906 -6.40625 8.878906 -7.164062 8.421875 -7.71875 C 7.972656 -8.28125 7.253906 -8.5625 6.265625 -8.5625 C 5.210938 -8.5625 4.453125 -8.253906 3.984375 -7.640625 C 3.515625 -7.035156 3.28125 -6.300781 3.28125 -5.4375 C 3.28125 -4.875 3.378906 -4.359375 3.578125 -3.890625 C 3.773438 -3.421875 4.09375 -3.039062 4.53125 -2.75 C 4.976562 -2.46875 5.554688 -2.328125 6.265625 -2.328125 C 7.171875 -2.328125 7.878906 -2.582031 8.390625 -3.09375 C 8.910156 -3.601562 9.171875 -4.382812 9.171875 -5.4375 Z M 12.65625 0 L 10.046875 0 C 9.921875 -0.289062 9.816406 -0.570312 9.734375 -0.84375 C 9.648438 -1.125 9.570312 -1.398438 9.5 -1.671875 C 9.132812 -1.140625 8.65625 -0.707031 8.0625 -0.375 C 7.476562 -0.0507812 6.78125 0.109375 5.96875 0.109375 C 4.9375 0.109375 4.019531 -0.132812 3.21875 -0.625 C 2.425781 -1.125 1.800781 -1.796875 1.34375 -2.640625 C 0.894531 -3.492188 0.671875 -4.4375 0.671875 -5.46875 C 0.671875 -6.476562 0.890625 -7.398438 1.328125 -8.234375 C 1.773438 -9.078125 2.414062 -9.75 3.25 -10.25 C 4.09375 -10.75 5.097656 -11 6.265625 -11 C 7.921875 -11 9.238281 -10.5 10.21875 -9.5 C 11.207031 -8.5 11.726562 -7.144531 11.78125 -5.4375 C 11.800781 -5.082031 11.816406 -4.613281 11.828125 -4.03125 C 11.835938 -3.445312 11.894531 -2.804688 12 -2.109375 C 12.113281 -1.410156 12.332031 -0.707031 12.65625 0 Z M 12.65625 0 "/></g></g></g><g fill="#ffffff" fill-opacity="1"><g transform="translate(64.972691, 19.721225)"><g><path d="M 3.921875 -5.4375 C 3.921875 -4.382812 4.179688 -3.601562 4.703125 -3.09375 C 5.222656 -2.582031 5.925781 -2.328125 6.8125 -2.328125 C 7.539062 -2.328125 8.125 -2.46875 8.5625 -2.75 C 9 -3.039062 9.3125 -3.421875 9.5 -3.890625 C 9.695312 -4.359375 9.796875 -4.875 9.796875 -5.4375 C 9.796875 -6.019531 9.695312 -6.539062 9.5 -7 C 9.3125 -7.46875 9 -7.84375 8.5625 -8.125 C 8.125 -8.414062 7.539062 -8.5625 6.8125 -8.5625 C 5.925781 -8.5625 5.222656 -8.3125 4.703125 -7.8125 C 4.179688 -7.3125 3.921875 -6.519531 3.921875 -5.4375 Z M 3.921875 -1.234375 L 3.921875 4.359375 L 1.3125 4.359375 L 1.3125 -5.4375 C 1.3125 -6.46875 1.523438 -7.398438 1.953125 -8.234375 C 2.378906 -9.078125 3 -9.75 3.8125 -10.25 C 4.632812 -10.75 5.644531 -11 6.84375 -11 C 8.070312 -11 9.097656 -10.738281 9.921875 -10.21875 C 10.742188 -9.695312 11.363281 -9.015625 11.78125 -8.171875 C 12.207031 -7.335938 12.421875 -6.4375 12.421875 -5.46875 C 12.421875 -4.4375 12.191406 -3.492188 11.734375 -2.640625 C 11.285156 -1.796875 10.660156 -1.125 9.859375 -0.625 C 9.066406 -0.132812 8.15625 0.109375 7.125 0.109375 C 6.414062 0.109375 5.796875 -0.0078125 5.265625 -0.25 C 4.742188 -0.5 4.296875 -0.828125 3.921875 -1.234375 Z M 3.921875 -1.234375 "/></g></g></g><g fill="#ffffff" fill-opacity="1"><g transform="translate(78.04352, 19.721225)"><g><path d="M 5.921875 0 L 1.453125 0 L 1.453125 -13.328125 L 5.921875 -13.328125 C 7.328125 -13.328125 8.523438 -13.023438 9.515625 -12.421875 C 10.503906 -11.816406 11.257812 -11.015625 11.78125 -10.015625 C 12.300781 -9.015625 12.5625 -7.898438 12.5625 -6.671875 C 12.5625 -5.441406 12.300781 -4.320312 11.78125 -3.3125 C 11.257812 -2.3125 10.503906 -1.507812 9.515625 -0.90625 C 8.523438 -0.300781 7.328125 0 5.921875 0 Z M 4.078125 -10.890625 L 4.078125 -2.4375 L 5.921875 -2.4375 C 6.867188 -2.4375 7.640625 -2.625 8.234375 -3 C 8.828125 -3.382812 9.257812 -3.894531 9.53125 -4.53125 C 9.8125 -5.164062 9.953125 -5.878906 9.953125 -6.671875 C 9.953125 -7.453125 9.8125 -8.160156 9.53125 -8.796875 C 9.257812 -9.441406 8.828125 -9.953125 8.234375 -10.328125 C 7.640625 -10.703125 6.867188 -10.890625 5.921875 -10.890625 Z M 4.078125 -10.890625 "/></g></g></g><g fill="#ffffff" fill-opacity="1"><g transform="translate(91.615397, 19.721225)"><g><path d="M 3.921875 -5.4375 L 3.921875 0 L 1.3125 0 L 1.3125 -5.421875 C 1.3125 -6.453125 1.523438 -7.390625 1.953125 -8.234375 C 2.390625 -9.078125 3.03125 -9.75 3.875 -10.25 C 4.71875 -10.75 5.734375 -11 6.921875 -11 C 7.085938 -11 7.25 -10.988281 7.40625 -10.96875 C 7.5625 -10.945312 7.722656 -10.921875 7.890625 -10.890625 L 7.890625 -8.359375 C 7.742188 -8.390625 7.601562 -8.414062 7.46875 -8.4375 C 7.34375 -8.457031 7.207031 -8.46875 7.0625 -8.46875 C 6.269531 -8.46875 5.644531 -8.332031 5.1875 -8.0625 C 4.738281 -7.800781 4.414062 -7.441406 4.21875 -6.984375 C 4.019531 -6.523438 3.921875 -6.007812 3.921875 -5.4375 Z M 3.921875 -5.4375 "/></g></g></g><g fill="#ffffff" fill-opacity="1"><g transform="translate(99.937158, 19.721225)"><g><path d="M 6.234375 -2.328125 C 7.265625 -2.328125 8.007812 -2.628906 8.46875 -3.234375 C 8.9375 -3.847656 9.171875 -4.582031 9.171875 -5.4375 C 9.171875 -6.300781 8.9375 -7.035156 8.46875 -7.640625 C 8.007812 -8.253906 7.265625 -8.5625 6.234375 -8.5625 C 5.203125 -8.5625 4.453125 -8.253906 3.984375 -7.640625 C 3.515625 -7.035156 3.28125 -6.300781 3.28125 -5.4375 C 3.28125 -4.582031 3.515625 -3.847656 3.984375 -3.234375 C 4.453125 -2.628906 5.203125 -2.328125 6.234375 -2.328125 Z M 6.234375 0.109375 C 5.066406 0.109375 4.066406 -0.140625 3.234375 -0.640625 C 2.398438 -1.140625 1.765625 -1.8125 1.328125 -2.65625 C 0.890625 -3.5 0.671875 -4.425781 0.671875 -5.4375 C 0.671875 -6.46875 0.890625 -7.398438 1.328125 -8.234375 C 1.765625 -9.078125 2.398438 -9.75 3.234375 -10.25 C 4.066406 -10.75 5.066406 -11 6.234375 -11 C 7.410156 -11 8.410156 -10.75 9.234375 -10.25 C 10.066406 -9.75 10.695312 -9.078125 11.125 -8.234375 C 11.5625 -7.398438 11.78125 -6.46875 11.78125 -5.4375 C 11.78125 -4.425781 11.5625 -3.5 11.125 -2.65625 C 10.695312 -1.8125 10.066406 -1.140625 9.234375 -0.640625 C 8.410156 -0.140625 7.410156 0.109375 6.234375 0.109375 Z M 6.234375 0.109375 "/></g></g></g><g fill="#ffffff" fill-opacity="1"><g transform="translate(112.398015, 19.721225)"><g><path d="M 3.921875 -5.4375 C 3.921875 -4.382812 4.179688 -3.601562 4.703125 -3.09375 C 5.222656 -2.582031 5.925781 -2.328125 6.8125 -2.328125 C 7.539062 -2.328125 8.125 -2.46875 8.5625 -2.75 C 9 -3.039062 9.3125 -3.421875 9.5 -3.890625 C 9.695312 -4.359375 9.796875 -4.875 9.796875 -5.4375 C 9.796875 -6.019531 9.695312 -6.539062 9.5 -7 C 9.3125 -7.46875 9 -7.84375 8.5625 -8.125 C 8.125 -8.414062 7.539062 -8.5625 6.8125 -8.5625 C 5.925781 -8.5625 5.222656 -8.3125 4.703125 -7.8125 C 4.179688 -7.3125 3.921875 -6.519531 3.921875 -5.4375 Z M 3.921875 -1.234375 L 3.921875 4.359375 L 1.3125 4.359375 L 1.3125 -5.4375 C 1.3125 -6.46875 1.523438 -7.398438 1.953125 -8.234375 C 2.378906 -9.078125 3 -9.75 3.8125 -10.25 C 4.632812 -10.75 5.644531 -11 6.84375 -11 C 8.070312 -11 9.097656 -10.738281 9.921875 -10.21875 C 10.742188 -9.695312 11.363281 -9.015625 11.78125 -8.171875 C 12.207031 -7.335938 12.421875 -6.4375 12.421875 -5.46875 C 12.421875 -4.4375 12.191406 -3.492188 11.734375 -2.640625 C 11.285156 -1.796875 10.660156 -1.125 9.859375 -0.625 C 9.066406 -0.132812 8.15625 0.109375 7.125 0.109375 C 6.414062 0.109375 5.796875 -0.0078125 5.265625 -0.25 C 4.742188 -0.5 4.296875 -0.828125 3.921875 -1.234375 Z M 3.921875 -1.234375 "/></g></g></g></svg>