<svg xmlns="http://www.w3.org/2000/svg" xmlns:xlink="http://www.w3.org/1999/xlink" width="470" zoomAndPan="magnify" viewBox="0 0 352.5 101.249998" height="135" preserveAspectRatio="xMidYMid meet" version="1.0"><defs><g/><clipPath id="b3540fc8cc"><path d="M 39.347656 26 L 82 26 L 82 68 L 39.347656 68 Z M 39.347656 26 " clip-rule="nonzero"/></clipPath><clipPath id="081bd3548c"><path d="M 78.105469 47.179688 C 78.105469 57.003906 70.109375 64.96875 60.246094 64.96875 C 50.382812 64.96875 42.390625 57.003906 42.390625 47.179688 C 42.390625 37.355469 50.382812 29.390625 60.246094 29.390625 C 70.109375 29.390625 78.105469 37.355469 78.105469 47.179688 Z M 81.121094 47.179688 C 81.121094 58.664062 71.773438 67.972656 60.246094 67.972656 C 48.71875 67.972656 39.375 58.664062 39.375 47.179688 C 39.375 35.695312 48.71875 26.386719 60.246094 26.386719 C 71.773438 26.386719 81.121094 35.695312 81.121094 47.179688 Z M 71.761719 37.859375 C 71.761719 39.046875 70.796875 40.007812 69.605469 40.007812 C 68.410156 40.007812 67.445312 39.046875 67.445312 37.859375 C 67.445312 36.671875 68.410156 35.707031 69.605469 35.707031 C 70.796875 35.707031 71.761719 36.671875 71.761719 37.859375 Z M 53.96875 48.855469 C 54.898438 52.308594 58.460938 54.359375 61.929688 53.433594 C 65.398438 52.507812 67.453125 48.957031 66.527344 45.503906 C 65.597656 42.050781 62.03125 40 58.566406 40.925781 C 55.097656 41.851562 53.039062 45.402344 53.96875 48.855469 Z M 51.054688 49.632812 C 52.417969 54.6875 57.632812 57.691406 62.710938 56.335938 C 67.785156 54.980469 70.796875 49.78125 69.4375 44.726562 C 68.078125 39.667969 62.859375 36.667969 57.785156 38.023438 C 52.707031 39.378906 49.695312 44.574219 51.054688 49.632812 Z M 51.054688 49.632812 " clip-rule="evenodd"/></clipPath><linearGradient x1="15" gradientTransform="matrix(1.391528, 0, 0, 1.386222, 39.374101, 22.227109)" y1="2.999999" x2="15" gradientUnits="userSpaceOnUse" y2="32.999998" id="8337375577"><stop stop-opacity="1" stop-color="rgb(52.89917%, 49.398804%, 100%)" offset="0"/><stop stop-opacity="1" stop-color="rgb(52.796936%, 49.28894%, 100%)" offset="0.0078125"/><stop stop-opacity="1" stop-color="rgb(52.590942%, 49.07074%, 100%)" offset="0.015625"/><stop stop-opacity="1" stop-color="rgb(52.386475%, 48.852539%, 100%)" offset="0.0234375"/><stop stop-opacity="1" stop-color="rgb(52.182007%, 48.632812%, 100%)" offset="0.03125"/><stop stop-opacity="1" stop-color="rgb(51.976013%, 48.414612%, 100%)" offset="0.0390625"/><stop stop-opacity="1" stop-color="rgb(51.771545%, 48.196411%, 100%)" offset="0.046875"/><stop stop-opacity="1" stop-color="rgb(51.565552%, 47.97821%, 100%)" offset="0.0546875"/><stop stop-opacity="1" stop-color="rgb(51.361084%, 47.758484%, 100%)" offset="0.0625"/><stop stop-opacity="1" stop-color="rgb(51.156616%, 47.540283%, 100%)" offset="0.0703125"/><stop stop-opacity="1" stop-color="rgb(50.950623%, 47.322083%, 100%)" offset="0.078125"/><stop stop-opacity="1" stop-color="rgb(50.746155%, 47.103882%, 100%)" offset="0.0859375"/><stop stop-opacity="1" stop-color="rgb(50.540161%, 46.884155%, 100%)" offset="0.09375"/><stop stop-opacity="1" stop-color="rgb(50.335693%, 46.665955%, 100%)" offset="0.101562"/><stop stop-opacity="1" stop-color="rgb(50.131226%, 46.447754%, 100%)" offset="0.109375"/><stop stop-opacity="1" stop-color="rgb(49.925232%, 46.228027%, 100%)" offset="0.117188"/><stop stop-opacity="1" stop-color="rgb(49.720764%, 46.009827%, 100%)" offset="0.125"/><stop stop-opacity="1" stop-color="rgb(49.514771%, 45.791626%, 100%)" offset="0.132812"/><stop stop-opacity="1" stop-color="rgb(49.310303%, 45.573425%, 100%)" offset="0.140625"/><stop stop-opacity="1" stop-color="rgb(49.105835%, 45.353699%, 100%)" offset="0.148438"/><stop stop-opacity="1" stop-color="rgb(48.899841%, 45.135498%, 100%)" offset="0.15625"/><stop stop-opacity="1" stop-color="rgb(48.695374%, 44.917297%, 100%)" offset="0.164063"/><stop stop-opacity="1" stop-color="rgb(48.490906%, 44.699097%, 100%)" offset="0.171875"/><stop stop-opacity="1" stop-color="rgb(48.284912%, 44.47937%, 100%)" offset="0.179688"/><stop stop-opacity="1" stop-color="rgb(48.080444%, 44.261169%, 100%)" offset="0.1875"/><stop stop-opacity="1" stop-color="rgb(47.874451%, 44.042969%, 100%)" offset="0.195312"/><stop stop-opacity="1" stop-color="rgb(47.669983%, 43.824768%, 100%)" offset="0.203125"/><stop stop-opacity="1" stop-color="rgb(47.465515%, 43.605042%, 100%)" offset="0.210938"/><stop stop-opacity="1" stop-color="rgb(47.259521%, 43.386841%, 100%)" offset="0.21875"/><stop stop-opacity="1" stop-color="rgb(47.055054%, 43.16864%, 100%)" offset="0.226562"/><stop stop-opacity="1" stop-color="rgb(46.84906%, 42.948914%, 100%)" offset="0.234375"/><stop stop-opacity="1" stop-color="rgb(46.644592%, 42.730713%, 100%)" offset="0.242188"/><stop stop-opacity="1" stop-color="rgb(46.440125%, 42.512512%, 100%)" offset="0.25"/><stop stop-opacity="1" stop-color="rgb(46.234131%, 42.294312%, 100%)" offset="0.257812"/><stop stop-opacity="1" stop-color="rgb(46.029663%, 42.074585%, 100%)" offset="0.265625"/><stop stop-opacity="1" stop-color="rgb(45.825195%, 41.856384%, 100%)" offset="0.273437"/><stop stop-opacity="1" stop-color="rgb(45.619202%, 41.638184%, 100%)" offset="0.28125"/><stop stop-opacity="1" stop-color="rgb(45.414734%, 41.419983%, 100%)" offset="0.289062"/><stop stop-opacity="1" stop-color="rgb(45.20874%, 41.200256%, 100%)" offset="0.296875"/><stop stop-opacity="1" stop-color="rgb(45.004272%, 40.982056%, 100%)" offset="0.304687"/><stop stop-opacity="1" stop-color="rgb(44.799805%, 40.763855%, 100%)" offset="0.3125"/><stop stop-opacity="1" stop-color="rgb(44.593811%, 40.544128%, 100%)" offset="0.320312"/><stop stop-opacity="1" stop-color="rgb(44.389343%, 40.325928%, 100%)" offset="0.328125"/><stop stop-opacity="1" stop-color="rgb(44.18335%, 40.107727%, 100%)" offset="0.335937"/><stop stop-opacity="1" stop-color="rgb(43.978882%, 39.889526%, 100%)" offset="0.34375"/><stop stop-opacity="1" stop-color="rgb(43.774414%, 39.6698%, 100%)" offset="0.351562"/><stop stop-opacity="1" stop-color="rgb(43.56842%, 39.451599%, 100%)" offset="0.359375"/><stop stop-opacity="1" stop-color="rgb(43.363953%, 39.233398%, 100%)" offset="0.367188"/><stop stop-opacity="1" stop-color="rgb(43.159485%, 39.015198%, 100%)" offset="0.375"/><stop stop-opacity="1" stop-color="rgb(42.953491%, 38.795471%, 100%)" offset="0.382812"/><stop stop-opacity="1" stop-color="rgb(42.749023%, 38.577271%, 100%)" offset="0.390625"/><stop stop-opacity="1" stop-color="rgb(42.54303%, 38.35907%, 100%)" offset="0.398437"/><stop stop-opacity="1" stop-color="rgb(42.338562%, 38.139343%, 100%)" offset="0.40625"/><stop stop-opacity="1" stop-color="rgb(42.134094%, 37.921143%, 100%)" offset="0.414062"/><stop stop-opacity="1" stop-color="rgb(41.928101%, 37.702942%, 100%)" offset="0.421875"/><stop stop-opacity="1" stop-color="rgb(41.723633%, 37.484741%, 100%)" offset="0.429687"/><stop stop-opacity="1" stop-color="rgb(41.517639%, 37.265015%, 100%)" offset="0.4375"/><stop stop-opacity="1" stop-color="rgb(41.313171%, 37.046814%, 100%)" offset="0.445312"/><stop stop-opacity="1" stop-color="rgb(41.108704%, 36.828613%, 100%)" offset="0.453125"/><stop stop-opacity="1" stop-color="rgb(40.90271%, 36.610413%, 100%)" offset="0.460937"/><stop stop-opacity="1" stop-color="rgb(40.644836%, 36.329651%, 100%)" offset="0.46875"/><stop stop-opacity="1" stop-color="rgb(40.332031%, 35.98938%, 100%)" offset="0.476562"/><stop stop-opacity="1" stop-color="rgb(40.0177%, 35.646057%, 100%)" offset="0.484375"/><stop stop-opacity="1" stop-color="rgb(39.704895%, 35.30426%, 100%)" offset="0.492187"/><stop stop-opacity="1" stop-color="rgb(39.39209%, 34.962463%, 100%)" offset="0.5"/><stop stop-opacity="1" stop-color="rgb(39.079285%, 34.620667%, 100%)" offset="0.507812"/><stop stop-opacity="1" stop-color="rgb(38.766479%, 34.27887%, 100%)" offset="0.515625"/><stop stop-opacity="1" stop-color="rgb(38.453674%, 33.937073%, 100%)" offset="0.523438"/><stop stop-opacity="1" stop-color="rgb(38.139343%, 33.59375%, 100%)" offset="0.53125"/><stop stop-opacity="1" stop-color="rgb(37.826538%, 33.251953%, 100%)" offset="0.539062"/><stop stop-opacity="1" stop-color="rgb(37.513733%, 32.910156%, 100%)" offset="0.546875"/><stop stop-opacity="1" stop-color="rgb(37.200928%, 32.568359%, 100%)" offset="0.554688"/><stop stop-opacity="1" stop-color="rgb(36.888123%, 32.226562%, 100%)" offset="0.5625"/><stop stop-opacity="1" stop-color="rgb(36.573792%, 31.88324%, 100%)" offset="0.570312"/><stop stop-opacity="1" stop-color="rgb(36.260986%, 31.541443%, 100%)" offset="0.578125"/><stop stop-opacity="1" stop-color="rgb(35.948181%, 31.199646%, 100%)" offset="0.585938"/><stop stop-opacity="1" stop-color="rgb(35.635376%, 30.857849%, 100%)" offset="0.59375"/><stop stop-opacity="1" stop-color="rgb(35.322571%, 30.516052%, 100%)" offset="0.601562"/><stop stop-opacity="1" stop-color="rgb(35.009766%, 30.174255%, 100%)" offset="0.609375"/><stop stop-opacity="1" stop-color="rgb(34.695435%, 29.830933%, 100%)" offset="0.617188"/><stop stop-opacity="1" stop-color="rgb(34.382629%, 29.489136%, 100%)" offset="0.625"/><stop stop-opacity="1" stop-color="rgb(34.069824%, 29.147339%, 100%)" offset="0.632813"/><stop stop-opacity="1" stop-color="rgb(33.757019%, 28.805542%, 100%)" offset="0.640625"/><stop stop-opacity="1" stop-color="rgb(33.444214%, 28.463745%, 100%)" offset="0.648438"/><stop stop-opacity="1" stop-color="rgb(33.131409%, 28.120422%, 100%)" offset="0.65625"/><stop stop-opacity="1" stop-color="rgb(32.817078%, 27.778625%, 100%)" offset="0.664062"/><stop stop-opacity="1" stop-color="rgb(32.504272%, 27.436829%, 100%)" offset="0.671875"/><stop stop-opacity="1" stop-color="rgb(32.191467%, 27.095032%, 100%)" offset="0.679688"/><stop stop-opacity="1" stop-color="rgb(31.878662%, 26.753235%, 100%)" offset="0.6875"/><stop stop-opacity="1" stop-color="rgb(31.565857%, 26.411438%, 100%)" offset="0.695312"/><stop stop-opacity="1" stop-color="rgb(31.251526%, 26.068115%, 100%)" offset="0.703125"/><stop stop-opacity="1" stop-color="rgb(30.938721%, 25.726318%, 100%)" offset="0.710938"/><stop stop-opacity="1" stop-color="rgb(30.625916%, 25.384521%, 100%)" offset="0.71875"/><stop stop-opacity="1" stop-color="rgb(30.31311%, 25.042725%, 100%)" offset="0.726562"/><stop stop-opacity="1" stop-color="rgb(30.000305%, 24.700928%, 100%)" offset="0.734375"/><stop stop-opacity="1" stop-color="rgb(29.6875%, 24.359131%, 100%)" offset="0.742188"/><stop stop-opacity="1" stop-color="rgb(29.373169%, 24.015808%, 100%)" offset="0.75"/><stop stop-opacity="1" stop-color="rgb(29.060364%, 23.674011%, 100%)" offset="0.757813"/><stop stop-opacity="1" stop-color="rgb(28.747559%, 23.332214%, 100%)" offset="0.765625"/><stop stop-opacity="1" stop-color="rgb(28.434753%, 22.990417%, 100%)" offset="0.773438"/><stop stop-opacity="1" stop-color="rgb(28.121948%, 22.648621%, 100%)" offset="0.78125"/><stop stop-opacity="1" stop-color="rgb(27.807617%, 22.305298%, 100%)" offset="0.789063"/><stop stop-opacity="1" stop-color="rgb(27.494812%, 21.963501%, 100%)" offset="0.796875"/><stop stop-opacity="1" stop-color="rgb(27.182007%, 21.621704%, 100%)" offset="0.804688"/><stop stop-opacity="1" stop-color="rgb(26.869202%, 21.279907%, 100%)" offset="0.8125"/><stop stop-opacity="1" stop-color="rgb(26.556396%, 20.93811%, 100%)" offset="0.820312"/><stop stop-opacity="1" stop-color="rgb(26.243591%, 20.596313%, 100%)" offset="0.828125"/><stop stop-opacity="1" stop-color="rgb(25.92926%, 20.252991%, 100%)" offset="0.835938"/><stop stop-opacity="1" stop-color="rgb(25.616455%, 19.911194%, 100%)" offset="0.84375"/><stop stop-opacity="1" stop-color="rgb(25.30365%, 19.569397%, 100%)" offset="0.851562"/><stop stop-opacity="1" stop-color="rgb(24.990845%, 19.2276%, 100%)" offset="0.859375"/><stop stop-opacity="1" stop-color="rgb(24.67804%, 18.885803%, 100%)" offset="0.867188"/><stop stop-opacity="1" stop-color="rgb(24.363708%, 18.54248%, 100%)" offset="0.875"/><stop stop-opacity="1" stop-color="rgb(24.050903%, 18.200684%, 100%)" offset="0.882812"/><stop stop-opacity="1" stop-color="rgb(23.738098%, 17.858887%, 100%)" offset="0.890625"/><stop stop-opacity="1" stop-color="rgb(23.425293%, 17.51709%, 100%)" offset="0.898438"/><stop stop-opacity="1" stop-color="rgb(23.112488%, 17.175293%, 100%)" offset="0.90625"/><stop stop-opacity="1" stop-color="rgb(22.799683%, 16.833496%, 100%)" offset="0.914062"/><stop stop-opacity="1" stop-color="rgb(22.485352%, 16.490173%, 100%)" offset="0.921875"/><stop stop-opacity="1" stop-color="rgb(22.172546%, 16.148376%, 100%)" offset="0.929688"/><stop stop-opacity="1" stop-color="rgb(21.859741%, 15.80658%, 100%)" offset="0.9375"/><stop stop-opacity="1" stop-color="rgb(21.546936%, 15.464783%, 100%)" offset="0.945312"/><stop stop-opacity="1" stop-color="rgb(21.234131%, 15.122986%, 100%)" offset="0.953125"/><stop stop-opacity="1" stop-color="rgb(20.9198%, 14.781189%, 100%)" offset="0.960937"/><stop stop-opacity="1" stop-color="rgb(20.606995%, 14.437866%, 100%)" offset="0.96875"/><stop stop-opacity="1" stop-color="rgb(20.294189%, 14.096069%, 100%)" offset="0.976562"/><stop stop-opacity="1" stop-color="rgb(19.981384%, 13.754272%, 100%)" offset="0.984375"/><stop stop-opacity="1" stop-color="rgb(19.668579%, 13.412476%, 100%)" offset="0.992188"/><stop stop-opacity="1" stop-color="rgb(19.355774%, 13.070679%, 100%)" offset="1"/></linearGradient></defs><g fill="#ffffff" fill-opacity="1"><g transform="translate(90.128991, 69.398313)"><g><path d="M 11.390625 -44.25 C 12.273438 -44.507812 13.09375 -44.648438 13.84375 -44.671875 C 14.59375 -44.691406 15.054688 -44.703125 15.234375 -44.703125 C 16.335938 -44.703125 17.332031 -44.59375 18.21875 -44.375 C 19.101562 -44.195312 20.007812 -43.78125 20.9375 -43.125 C 21.507812 -42.71875 21.847656 -42.425781 21.953125 -42.25 C 22.066406 -42.082031 22.125 -41.863281 22.125 -41.59375 C 22.125 -41.507812 22.125 -41.421875 22.125 -41.328125 C 22.03125 -40.796875 21.921875 -40.46875 21.796875 -40.34375 C 21.742188 -40.289062 21.675781 -40.265625 21.59375 -40.265625 C 21.28125 -40.265625 20.679688 -40.421875 19.796875 -40.734375 C 18.648438 -41.171875 17.835938 -41.390625 17.359375 -41.390625 C 16.609375 -41.390625 15.378906 -40.867188 13.671875 -39.828125 C 11.972656 -38.796875 10.835938 -37.882812 10.265625 -37.09375 C 9.773438 -36.382812 9.441406 -35.742188 9.265625 -35.171875 C 9.097656 -34.597656 8.988281 -33.800781 8.9375 -32.78125 C 8.9375 -32.519531 8.9375 -32.300781 8.9375 -32.125 C 8.9375 -30.925781 9.132812 -30.328125 9.53125 -30.328125 C 9.53125 -30.328125 9.554688 -30.328125 9.609375 -30.328125 C 9.734375 -30.328125 9.84375 -30.375 9.9375 -30.46875 C 10.113281 -30.644531 10.222656 -30.734375 10.265625 -30.734375 C 10.265625 -30.734375 10.273438 -30.722656 10.296875 -30.703125 C 10.316406 -30.679688 10.328125 -30.554688 10.328125 -30.328125 C 10.328125 -30.160156 10.4375 -30 10.65625 -29.84375 C 10.882812 -29.6875 11.328125 -29.539062 11.984375 -29.40625 C 17.191406 -27.945312 20.859375 -25.894531 22.984375 -23.25 C 23.515625 -22.582031 23.878906 -22.050781 24.078125 -21.65625 C 24.273438 -21.257812 24.414062 -20.796875 24.5 -20.265625 C 24.59375 -19.734375 24.640625 -19.179688 24.640625 -18.609375 C 24.640625 -17.023438 24.128906 -15.335938 23.109375 -13.546875 C 22.097656 -11.753906 20.332031 -10 17.8125 -8.28125 C 16.269531 -7.257812 15.023438 -6.601562 14.078125 -6.3125 C 13.128906 -6.03125 11.878906 -5.890625 10.328125 -5.890625 C 10.109375 -5.890625 9.890625 -5.890625 9.671875 -5.890625 C 8.429688 -5.941406 7.566406 -6.007812 7.078125 -6.09375 C 6.597656 -6.175781 6.179688 -6.332031 5.828125 -6.5625 C 5.566406 -6.6875 5.378906 -6.804688 5.265625 -6.921875 C 5.148438 -7.035156 5.09375 -7.132812 5.09375 -7.21875 L 5.09375 -7.28125 C 5.144531 -7.332031 5.171875 -7.359375 5.171875 -7.359375 C 5.171875 -7.441406 5.082031 -7.484375 4.90625 -7.484375 C 4.769531 -7.484375 4.390625 -7.710938 3.765625 -8.171875 C 3.148438 -8.640625 2.84375 -8.941406 2.84375 -9.078125 C 2.84375 -9.160156 2.929688 -9.203125 3.109375 -9.203125 C 3.242188 -9.203125 3.398438 -9.179688 3.578125 -9.140625 L 4.3125 -9.015625 L 3.4375 -9.875 C 2.914062 -10.445312 2.65625 -10.84375 2.65625 -11.0625 L 2.65625 -11.125 C 2.695312 -11.164062 2.738281 -11.1875 2.78125 -11.1875 C 2.957031 -11.1875 3.3125 -10.945312 3.84375 -10.46875 C 4.195312 -10.195312 4.523438 -10.015625 4.828125 -9.921875 C 5.140625 -9.835938 5.671875 -9.773438 6.421875 -9.734375 C 6.734375 -9.734375 7 -9.734375 7.21875 -9.734375 C 7.570312 -9.734375 7.878906 -9.753906 8.140625 -9.796875 C 8.410156 -9.847656 8.8125 -10.070312 9.34375 -10.46875 C 10.050781 -10.945312 10.535156 -11.34375 10.796875 -11.65625 C 10.929688 -11.832031 11.019531 -11.921875 11.0625 -11.921875 C 11.101562 -11.921875 11.125 -11.898438 11.125 -11.859375 C 11.125 -11.816406 11.132812 -11.78125 11.15625 -11.75 C 11.175781 -11.726562 11.210938 -11.71875 11.265625 -11.71875 C 11.304688 -11.71875 11.359375 -11.738281 11.421875 -11.78125 C 11.492188 -11.832031 11.570312 -11.878906 11.65625 -11.921875 C 11.96875 -12.097656 12.125 -12.226562 12.125 -12.3125 L 12.125 -12.390625 C 12.125 -12.566406 12.410156 -12.921875 12.984375 -13.453125 C 13.460938 -13.847656 14.046875 -14.660156 14.734375 -15.890625 C 15.421875 -17.128906 15.765625 -17.96875 15.765625 -18.40625 C 15.765625 -19.425781 15.300781 -20.375 14.375 -21.25 C 13.445312 -22.132812 12.234375 -22.800781 10.734375 -23.25 C 9.628906 -23.5625 8.390625 -24.035156 7.015625 -24.671875 C 5.648438 -25.304688 4.800781 -25.8125 4.46875 -26.1875 C 4.132812 -26.570312 3.679688 -27.425781 3.109375 -28.75 C 2.453125 -30.207031 2.125 -31.6875 2.125 -33.1875 C 2.125 -34.070312 2.234375 -34.929688 2.453125 -35.765625 C 3.515625 -39.867188 6.492188 -42.695312 11.390625 -44.25 Z M 11.390625 -44.25 "/></g></g></g><g fill="#ffffff" fill-opacity="1"><g transform="translate(116.553117, 69.398313)"><g><path d="M 5.03125 -34.640625 C 5.65625 -34.773438 6.097656 -34.84375 6.359375 -34.84375 C 6.398438 -34.84375 6.488281 -34.828125 6.625 -34.796875 C 6.757812 -34.773438 7.046875 -34.679688 7.484375 -34.515625 C 8.054688 -34.285156 8.582031 -33.882812 9.0625 -33.3125 C 9.550781 -32.738281 9.882812 -32.125 10.0625 -31.46875 C 10.238281 -30.707031 10.351562 -30.304688 10.40625 -30.265625 C 10.40625 -30.265625 10.515625 -30.316406 10.734375 -30.421875 C 10.953125 -30.535156 11.222656 -30.738281 11.546875 -31.03125 C 11.878906 -31.320312 12.25 -31.617188 12.65625 -31.921875 C 14.113281 -33.117188 15.203125 -33.859375 15.921875 -34.140625 C 16.648438 -34.429688 17.546875 -34.578125 18.609375 -34.578125 C 18.742188 -34.578125 18.898438 -34.578125 19.078125 -34.578125 C 20.179688 -34.535156 21.007812 -34.378906 21.5625 -34.109375 C 22.113281 -33.847656 22.628906 -33.316406 23.109375 -32.515625 C 23.640625 -31.816406 24.023438 -30.914062 24.265625 -29.8125 C 24.515625 -28.707031 24.679688 -27.113281 24.765625 -25.03125 C 24.941406 -19.738281 25.078125 -16.601562 25.171875 -15.625 L 25.375 -14.046875 L 26.09375 -14.640625 C 26.625 -15.117188 27.019531 -15.359375 27.28125 -15.359375 C 27.457031 -15.359375 27.546875 -15.207031 27.546875 -14.90625 C 27.546875 -14.90625 27.546875 -14.882812 27.546875 -14.84375 C 27.546875 -14.351562 27.285156 -13.578125 26.765625 -12.515625 C 26.179688 -11.410156 25.757812 -10.53125 25.5 -9.875 C 25.320312 -9.34375 24.800781 -8.644531 23.9375 -7.78125 C 23.082031 -6.914062 22.429688 -6.394531 21.984375 -6.21875 C 21.765625 -6.132812 21.546875 -6.09375 21.328125 -6.09375 C 20.578125 -6.09375 19.867188 -6.535156 19.203125 -7.421875 C 18.765625 -7.992188 18.46875 -8.546875 18.3125 -9.078125 C 18.15625 -9.609375 18.046875 -10.378906 17.984375 -11.390625 C 17.921875 -12.410156 17.863281 -14.3125 17.8125 -17.09375 C 17.6875 -24.15625 17.507812 -28.0625 17.28125 -28.8125 C 17.15625 -29.382812 16.828125 -29.71875 16.296875 -29.8125 C 16.117188 -29.8125 15.894531 -29.8125 15.625 -29.8125 C 15.101562 -29.8125 14.707031 -29.742188 14.4375 -29.609375 C 14.175781 -29.472656 13.800781 -29.1875 13.3125 -28.75 C 13 -28.4375 12.773438 -28.210938 12.640625 -28.078125 C 12.515625 -27.953125 12.34375 -27.734375 12.125 -27.421875 C 11.90625 -27.109375 11.757812 -26.875 11.6875 -26.71875 C 11.625 -26.570312 11.523438 -26.265625 11.390625 -25.796875 C 11.253906 -25.335938 11.15625 -24.960938 11.09375 -24.671875 C 11.03125 -24.378906 10.941406 -23.207031 10.828125 -21.15625 C 10.710938 -19.101562 10.625 -17.753906 10.5625 -17.109375 C 10.5 -16.472656 10.398438 -15.539062 10.265625 -14.3125 C 9.910156 -11.257812 9.644531 -9.425781 9.46875 -8.8125 C 8.9375 -7.21875 8.382812 -6.351562 7.8125 -6.21875 C 7.238281 -6.09375 6.863281 -6.03125 6.6875 -6.03125 C 5.851562 -6.03125 4.992188 -6.535156 4.109375 -7.546875 C 3.796875 -7.898438 3.570312 -8.195312 3.4375 -8.4375 C 3.3125 -8.6875 3.191406 -8.953125 3.078125 -9.234375 C 2.972656 -9.523438 2.921875 -9.914062 2.921875 -10.40625 C 2.921875 -10.488281 2.929688 -10.707031 2.953125 -11.0625 C 2.972656 -11.414062 3.015625 -11.929688 3.078125 -12.609375 C 3.140625 -13.296875 3.21875 -14.367188 3.3125 -15.828125 C 3.625 -20.066406 3.78125 -23.398438 3.78125 -25.828125 C 3.78125 -28.304688 3.625 -29.894531 3.3125 -30.59375 C 2.820312 -31.613281 2.578125 -32.320312 2.578125 -32.71875 C 2.578125 -33.113281 2.820312 -33.488281 3.3125 -33.84375 C 3.882812 -34.238281 4.457031 -34.503906 5.03125 -34.640625 Z M 5.03125 -34.640625 "/></g></g></g><g fill="#ffffff" fill-opacity="1"><g transform="translate(144.964027, 69.398313)"><g><path d="M 10.0625 -34.171875 C 10.863281 -34.347656 11.648438 -34.457031 12.421875 -34.5 C 13.191406 -34.550781 13.644531 -34.578125 13.78125 -34.578125 C 15.007812 -34.578125 15.9375 -34.46875 16.5625 -34.25 C 17.269531 -34.070312 17.972656 -33.617188 18.671875 -32.890625 C 19.378906 -32.160156 19.84375 -31.394531 20.0625 -30.59375 C 20.289062 -29.84375 20.414062 -29.132812 20.4375 -28.46875 C 20.457031 -27.8125 20.46875 -27.375 20.46875 -27.15625 C 20.46875 -25.5625 20.378906 -22.78125 20.203125 -18.8125 C 20.160156 -17.394531 20.125 -16.273438 20.09375 -15.453125 C 20.070312 -14.640625 20.0625 -13.976562 20.0625 -13.46875 C 20.0625 -12.96875 20.082031 -12.628906 20.125 -12.453125 C 20.175781 -12.273438 20.242188 -12.1875 20.328125 -12.1875 C 20.503906 -12.1875 21.082031 -12.671875 22.0625 -13.640625 C 22.851562 -14.441406 23.359375 -14.84375 23.578125 -14.84375 L 23.71875 -14.84375 C 23.757812 -14.84375 23.800781 -14.882812 23.84375 -14.96875 C 23.84375 -15.050781 23.84375 -15.117188 23.84375 -15.171875 C 23.84375 -15.296875 23.875 -15.398438 23.9375 -15.484375 C 24.007812 -15.578125 24.085938 -15.625 24.171875 -15.625 C 24.441406 -15.625 24.597656 -15.335938 24.640625 -14.765625 C 24.679688 -14.191406 24.703125 -13.796875 24.703125 -13.578125 C 24.703125 -12.960938 24.632812 -12.410156 24.5 -11.921875 C 24.28125 -11.304688 23.894531 -10.632812 23.34375 -9.90625 C 22.789062 -9.175781 22.1875 -8.585938 21.53125 -8.140625 C 20.820312 -7.660156 20.113281 -7.421875 19.40625 -7.421875 C 19.09375 -7.421875 18.59375 -7.507812 17.90625 -7.6875 C 17.226562 -7.863281 16.46875 -8.523438 15.625 -9.671875 C 15.1875 -10.328125 14.898438 -10.65625 14.765625 -10.65625 C 14.640625 -10.65625 14.132812 -10.28125 13.25 -9.53125 C 12.007812 -8.425781 10.992188 -7.765625 10.203125 -7.546875 C 9.410156 -7.328125 8.722656 -7.21875 8.140625 -7.21875 C 7.523438 -7.21875 6.863281 -7.304688 6.15625 -7.484375 C 4.164062 -8.054688 2.6875 -9.269531 1.71875 -11.125 C 1.457031 -11.738281 1.28125 -12.253906 1.1875 -12.671875 C 1.101562 -13.097656 1.0625 -13.734375 1.0625 -14.578125 C 1.0625 -17.128906 1.851562 -19.242188 3.4375 -20.921875 C 5.03125 -22.609375 7.59375 -24.046875 11.125 -25.234375 C 11.832031 -25.492188 12.335938 -25.691406 12.640625 -25.828125 C 12.953125 -25.960938 13.238281 -26.070312 13.5 -26.15625 C 13.769531 -26.25 13.945312 -26.347656 14.03125 -26.453125 C 14.125 -26.566406 14.191406 -26.675781 14.234375 -26.78125 C 14.285156 -26.894531 14.351562 -27.0625 14.4375 -27.28125 C 14.476562 -27.550781 14.5 -27.882812 14.5 -28.28125 C 14.5 -28.457031 14.476562 -28.789062 14.4375 -29.28125 L 14.3125 -30.734375 L 12.515625 -30.734375 C 11.367188 -30.734375 10.066406 -30.488281 8.609375 -30 C 7.992188 -29.78125 7.296875 -29.582031 6.515625 -29.40625 C 5.742188 -29.226562 5.101562 -29.140625 4.59375 -29.140625 C 4.09375 -29.140625 3.820312 -29.207031 3.78125 -29.34375 C 3.78125 -29.425781 3.929688 -29.800781 4.234375 -30.46875 C 5.117188 -32.1875 7.0625 -33.421875 10.0625 -34.171875 Z M 14.640625 -19.203125 C 14.640625 -19.734375 14.628906 -20.21875 14.609375 -20.65625 C 14.585938 -21.101562 14.5625 -21.457031 14.53125 -21.71875 C 14.507812 -21.988281 14.476562 -22.125 14.4375 -22.125 C 13.6875 -22.082031 12.722656 -21.738281 11.546875 -21.09375 C 10.378906 -20.457031 9.535156 -19.851562 9.015625 -19.28125 C 8.304688 -18.519531 7.863281 -17.6875 7.6875 -16.78125 C 7.507812 -15.882812 7.421875 -15.191406 7.421875 -14.703125 C 7.421875 -14.128906 7.53125 -13.476562 7.75 -12.75 C 7.96875 -12.019531 8.410156 -11.65625 9.078125 -11.65625 C 10.179688 -11.65625 11.347656 -12.273438 12.578125 -13.515625 C 13.460938 -14.265625 14.023438 -14.96875 14.265625 -15.625 C 14.515625 -16.289062 14.640625 -17.484375 14.640625 -19.203125 Z M 14.640625 -19.203125 "/></g></g></g><g fill="#ffffff" fill-opacity="1"><g transform="translate(170.129861, 69.398313)"><g><path d="M 15.359375 -34.109375 C 16.421875 -34.640625 17.484375 -34.90625 18.546875 -34.90625 C 20.398438 -34.90625 22.320312 -34.132812 24.3125 -32.59375 C 26.5625 -30.820312 27.84375 -28.0625 28.15625 -24.3125 C 28.195312 -23.644531 28.21875 -22.984375 28.21875 -22.328125 C 28.21875 -20.554688 27.972656 -18.65625 27.484375 -16.625 C 27.003906 -14.59375 26.007812 -12.78125 24.5 -11.1875 C 23.269531 -9.863281 22.054688 -8.90625 20.859375 -8.3125 C 19.671875 -7.71875 18.28125 -7.375 16.6875 -7.28125 C 16.207031 -7.238281 15.765625 -7.21875 15.359375 -7.21875 C 15.015625 -7.21875 14.664062 -7.25 14.3125 -7.3125 C 13.957031 -7.382812 13.359375 -7.597656 12.515625 -7.953125 C 11.328125 -8.429688 10.6875 -8.671875 10.59375 -8.671875 C 10.46875 -8.671875 10.335938 -6.578125 10.203125 -2.390625 C 10.109375 0.128906 9.953125 2.019531 9.734375 3.28125 C 9.515625 4.539062 9.207031 5.210938 8.8125 5.296875 C 8.414062 5.335938 7.953125 5.492188 7.421875 5.765625 C 6.753906 6.023438 6.046875 6.15625 5.296875 6.15625 L 4.109375 6.15625 L 3.90625 3.84375 C 3.550781 -0.132812 3.351562 -2.6875 3.3125 -3.8125 C 3.269531 -4.9375 3.25 -6.003906 3.25 -7.015625 C 3.25 -8.347656 3.269531 -9.695312 3.3125 -11.0625 C 3.53125 -13.75 3.6875 -17.921875 3.78125 -23.578125 C 3.78125 -24.242188 3.78125 -24.84375 3.78125 -25.375 C 3.78125 -27.445312 3.710938 -28.59375 3.578125 -28.8125 C 3.578125 -28.851562 3.554688 -28.875 3.515625 -28.875 C 3.460938 -28.875 3.394531 -28.851562 3.3125 -28.8125 C 3.132812 -28.8125 3.023438 -28.820312 2.984375 -28.84375 C 2.941406 -28.863281 2.921875 -28.941406 2.921875 -29.078125 C 3.046875 -29.429688 3.195312 -29.960938 3.375 -30.671875 C 3.550781 -31.242188 3.738281 -31.640625 3.9375 -31.859375 C 4.132812 -32.078125 4.585938 -32.363281 5.296875 -32.71875 C 5.910156 -33.03125 6.347656 -33.21875 6.609375 -33.28125 C 6.878906 -33.34375 7.101562 -33.375 7.28125 -33.375 C 7.5 -33.375 7.695312 -33.351562 7.875 -33.3125 C 8.675781 -33.132812 9.285156 -32.847656 9.703125 -32.453125 C 10.117188 -32.054688 10.328125 -31.550781 10.328125 -30.9375 C 10.328125 -30.269531 10.367188 -29.9375 10.453125 -29.9375 C 10.546875 -29.9375 11.101562 -30.488281 12.125 -31.59375 C 13.132812 -32.695312 14.210938 -33.535156 15.359375 -34.109375 Z M 17.28125 -28.28125 C 16.40625 -28.945312 15.566406 -29.28125 14.765625 -29.28125 C 13.535156 -29.28125 12.390625 -28.53125 11.328125 -27.03125 C 10.972656 -26.539062 10.757812 -26.050781 10.6875 -25.5625 C 10.625 -25.082031 10.59375 -23.828125 10.59375 -21.796875 C 10.59375 -20.160156 10.632812 -18.664062 10.71875 -17.3125 C 10.8125 -15.96875 10.957031 -15.085938 11.15625 -14.671875 C 11.351562 -14.253906 11.71875 -13.867188 12.25 -13.515625 C 12.875 -13.066406 13.5625 -12.84375 14.3125 -12.84375 C 14.832031 -12.84375 15.585938 -13.039062 16.578125 -13.4375 C 17.578125 -13.84375 18.429688 -14.75 19.140625 -16.15625 C 19.804688 -18.0625 20.148438 -19.273438 20.171875 -19.796875 C 20.191406 -20.328125 20.203125 -21.101562 20.203125 -22.125 C 20.203125 -23.625 19.9375 -24.859375 19.40625 -25.828125 C 18.875 -26.796875 18.164062 -27.613281 17.28125 -28.28125 Z M 17.28125 -28.28125 "/></g></g></g><g fill="#ffffff" fill-opacity="1"><g transform="translate(199.600379, 69.398313)"><g><path d="M 14.96875 -44.109375 C 15.71875 -44.242188 16.535156 -44.3125 17.421875 -44.3125 C 18.128906 -44.3125 19.109375 -44.234375 20.359375 -44.078125 C 21.617188 -43.921875 22.890625 -43.535156 24.171875 -42.921875 C 25.054688 -42.472656 26.113281 -41.65625 27.34375 -40.46875 C 28.582031 -39.28125 29.46875 -38.222656 30 -37.296875 C 30.84375 -35.703125 31.375 -34.054688 31.59375 -32.359375 C 31.8125 -30.660156 31.921875 -29.28125 31.921875 -28.21875 C 31.921875 -27.070312 31.832031 -25.921875 31.65625 -24.765625 C 31.175781 -22.035156 30.050781 -19.421875 28.28125 -16.921875 C 26.507812 -14.429688 24.234375 -12.28125 21.453125 -10.46875 C 20.578125 -9.894531 19.351562 -9.273438 17.78125 -8.609375 C 16.21875 -7.941406 15.191406 -7.609375 14.703125 -7.609375 C 14.304688 -7.609375 13.910156 -7.546875 13.515625 -7.421875 C 13.335938 -7.328125 13.050781 -7.28125 12.65625 -7.28125 C 12.34375 -7.28125 11.820312 -7.332031 11.09375 -7.4375 C 10.363281 -7.550781 9.671875 -7.785156 9.015625 -8.140625 C 8.253906 -8.453125 7.566406 -9.003906 6.953125 -9.796875 C 6.335938 -10.597656 5.851562 -11.503906 5.5 -12.515625 C 5.144531 -13.484375 4.867188 -14.6875 4.671875 -16.125 C 4.472656 -17.5625 4.375 -18.613281 4.375 -19.28125 C 4.375 -19.5 4.394531 -19.695312 4.4375 -19.875 C 4.476562 -20.050781 4.5 -20.226562 4.5 -20.40625 C 4.5 -20.625 4.4375 -20.820312 4.3125 -21 C 4.175781 -21.175781 4.109375 -21.503906 4.109375 -21.984375 C 4.109375 -22.253906 4.128906 -22.585938 4.171875 -22.984375 C 4.429688 -25.765625 4.617188 -28.875 4.734375 -32.3125 C 4.847656 -35.757812 4.90625 -38.101562 4.90625 -39.34375 C 4.90625 -40.757812 4.859375 -41.554688 4.765625 -41.734375 C 4.722656 -41.773438 4.703125 -41.835938 4.703125 -41.921875 C 4.703125 -42.191406 4.898438 -42.65625 5.296875 -43.3125 C 5.335938 -43.40625 5.613281 -43.460938 6.125 -43.484375 C 6.632812 -43.503906 6.976562 -43.515625 7.15625 -43.515625 C 7.6875 -43.515625 7.992188 -43.472656 8.078125 -43.390625 C 8.117188 -43.296875 8.207031 -43.25 8.34375 -43.25 C 8.382812 -43.25 8.472656 -43.269531 8.609375 -43.3125 C 8.648438 -43.3125 8.695312 -43.3125 8.75 -43.3125 C 8.925781 -43.3125 9.054688 -43.160156 9.140625 -42.859375 C 9.179688 -42.679688 9.234375 -42.546875 9.296875 -42.453125 C 9.367188 -42.367188 9.472656 -42.328125 9.609375 -42.328125 C 9.648438 -42.328125 9.734375 -42.335938 9.859375 -42.359375 C 9.992188 -42.378906 10.21875 -42.441406 10.53125 -42.546875 C 10.84375 -42.660156 11.304688 -42.851562 11.921875 -43.125 C 13.160156 -43.601562 14.175781 -43.929688 14.96875 -44.109375 Z M 17.953125 -37.75 C 17.242188 -37.96875 16.457031 -38.117188 15.59375 -38.203125 C 14.738281 -38.296875 14.132812 -38.34375 13.78125 -38.34375 C 13.289062 -38.34375 12.9375 -38.300781 12.71875 -38.21875 C 12.445312 -38.175781 12.265625 -37.921875 12.171875 -37.453125 C 12.085938 -36.992188 12.003906 -35.546875 11.921875 -33.109375 C 11.878906 -31.609375 11.859375 -30.019531 11.859375 -28.34375 C 11.859375 -26.664062 11.890625 -24.4375 11.953125 -21.65625 C 12.015625 -18.875 12.160156 -16.929688 12.390625 -15.828125 C 12.566406 -15.117188 12.6875 -14.707031 12.75 -14.59375 C 12.8125 -14.488281 12.910156 -14.4375 13.046875 -14.4375 C 13.140625 -14.4375 13.25 -14.457031 13.375 -14.5 C 14.394531 -14.726562 15.65625 -15.515625 17.15625 -16.859375 C 18.65625 -18.203125 19.890625 -19.625 20.859375 -21.125 C 21.878906 -22.71875 22.507812 -24.066406 22.75 -25.171875 C 22.988281 -26.273438 23.109375 -27.242188 23.109375 -28.078125 C 23.109375 -28.878906 23.019531 -29.71875 22.84375 -30.59375 C 22.09375 -34.65625 20.460938 -37.039062 17.953125 -37.75 Z M 17.953125 -37.75 "/></g></g></g><g fill="#ffffff" fill-opacity="1"><g transform="translate(234.302754, 69.398313)"><g><path d="M 14.703125 -34.375 C 15.316406 -34.59375 15.800781 -34.703125 16.15625 -34.703125 C 16.507812 -34.703125 16.953125 -34.59375 17.484375 -34.375 C 17.921875 -34.15625 18.226562 -33.847656 18.40625 -33.453125 C 18.582031 -33.054688 18.671875 -32.4375 18.671875 -31.59375 C 18.671875 -30.84375 18.523438 -30.3125 18.234375 -30 C 17.953125 -29.695312 17.4375 -29.519531 16.6875 -29.46875 C 14.875 -29.289062 13.21875 -28.5 11.71875 -27.09375 C 11.363281 -26.78125 11.117188 -26.554688 10.984375 -26.421875 C 10.859375 -26.296875 10.695312 -26.085938 10.5 -25.796875 C 10.300781 -25.515625 10.164062 -25.316406 10.09375 -25.203125 C 10.03125 -25.085938 9.941406 -24.8125 9.828125 -24.375 C 9.722656 -23.9375 9.660156 -23.570312 9.640625 -23.28125 C 9.617188 -22.988281 9.59375 -22.675781 9.5625 -22.34375 C 9.539062 -22.019531 9.507812 -21.582031 9.46875 -21.03125 C 9.425781 -20.476562 9.40625 -19.582031 9.40625 -18.34375 C 9.363281 -15.382812 9.304688 -13.085938 9.234375 -11.453125 C 9.171875 -9.828125 8.960938 -8.75 8.609375 -8.21875 C 8.347656 -7.769531 8.171875 -7.5 8.078125 -7.40625 C 7.992188 -7.320312 7.90625 -7.28125 7.8125 -7.28125 C 7.726562 -7.28125 7.617188 -7.328125 7.484375 -7.421875 C 7.347656 -7.503906 7.191406 -7.546875 7.015625 -7.546875 C 6.890625 -7.546875 6.738281 -7.503906 6.5625 -7.421875 C 6.46875 -7.378906 6.378906 -7.359375 6.296875 -7.359375 C 6.203125 -7.359375 6.066406 -7.398438 5.890625 -7.484375 C 5.710938 -7.566406 5.382812 -7.832031 4.90625 -8.28125 C 4.101562 -9.03125 3.65625 -9.84375 3.5625 -10.71875 C 3.476562 -11.601562 3.394531 -15.425781 3.3125 -22.1875 C 3.21875 -29.300781 3.109375 -33.03125 2.984375 -33.375 C 2.941406 -33.550781 2.921875 -33.6875 2.921875 -33.78125 C 2.921875 -33.863281 2.941406 -33.90625 2.984375 -33.90625 C 3.023438 -33.90625 3.066406 -33.90625 3.109375 -33.90625 C 3.285156 -33.90625 3.53125 -33.882812 3.84375 -33.84375 C 4.0625 -33.800781 4.257812 -33.78125 4.4375 -33.78125 C 4.75 -33.78125 5.015625 -33.847656 5.234375 -33.984375 C 5.367188 -34.109375 5.632812 -34.171875 6.03125 -34.171875 C 6.332031 -34.171875 6.707031 -34.128906 7.15625 -34.046875 L 8.671875 -33.78125 L 9.53125 -30 L 10.59375 -31.265625 C 11.832031 -32.765625 13.203125 -33.800781 14.703125 -34.375 Z M 14.703125 -34.375 "/></g></g></g><g fill="#ffffff" fill-opacity="1"><g transform="translate(253.11091, 69.398313)"><g><path d="M 11.921875 -34.578125 C 13.109375 -34.972656 14.242188 -35.171875 15.328125 -35.171875 C 16.410156 -35.171875 17.640625 -34.953125 19.015625 -34.515625 C 20.335938 -34.066406 21.453125 -33.578125 22.359375 -33.046875 C 23.265625 -32.515625 24.09375 -31.8125 24.84375 -30.9375 C 26.957031 -28.59375 28.015625 -25.65625 28.015625 -22.125 C 28.015625 -21.675781 27.992188 -21.253906 27.953125 -20.859375 C 27.679688 -16.796875 26.132812 -13.421875 23.3125 -10.734375 C 21.238281 -8.785156 19.375 -7.65625 17.71875 -7.34375 C 16.0625 -7.039062 14.859375 -6.890625 14.109375 -6.890625 C 12.335938 -6.890625 10.492188 -7.363281 8.578125 -8.3125 C 6.660156 -9.257812 5.0625 -10.945312 3.78125 -13.375 C 3.207031 -14.519531 2.796875 -15.625 2.546875 -16.6875 C 2.304688 -17.75 2.1875 -19.097656 2.1875 -20.734375 C 2.1875 -24.171875 3.015625 -27.0625 4.671875 -29.40625 C 6.328125 -31.75 8.742188 -33.472656 11.921875 -34.578125 Z M 17.28125 -29.34375 C 16.488281 -29.738281 15.738281 -29.9375 15.03125 -29.9375 C 14.375 -29.9375 13.546875 -29.703125 12.546875 -29.234375 C 11.554688 -28.773438 10.617188 -27.597656 9.734375 -25.703125 C 9.378906 -24.953125 9.171875 -24.320312 9.109375 -23.8125 C 9.046875 -23.300781 9.015625 -22.1875 9.015625 -20.46875 C 9.015625 -18.789062 9.046875 -17.707031 9.109375 -17.21875 C 9.171875 -16.738281 9.378906 -16.117188 9.734375 -15.359375 C 10.617188 -13.679688 11.832031 -12.644531 13.375 -12.25 C 13.507812 -12.207031 13.644531 -12.1875 13.78125 -12.1875 C 14.613281 -12.1875 15.722656 -12.757812 17.109375 -13.90625 C 18.503906 -15.050781 19.425781 -16.3125 19.875 -17.6875 C 20.132812 -18.519531 20.273438 -19.351562 20.296875 -20.1875 C 20.316406 -21.03125 20.328125 -21.539062 20.328125 -21.71875 C 20.328125 -23 20.195312 -24.101562 19.9375 -25.03125 C 19.757812 -25.914062 19.40625 -26.785156 18.875 -27.640625 C 18.34375 -28.503906 17.8125 -29.070312 17.28125 -29.34375 Z M 17.28125 -29.34375 "/></g></g></g><g fill="#ffffff" fill-opacity="1"><g transform="translate(283.177462, 69.398313)"><g><path d="M 15.359375 -34.109375 C 16.421875 -34.640625 17.484375 -34.90625 18.546875 -34.90625 C 20.398438 -34.90625 22.320312 -34.132812 24.3125 -32.59375 C 26.5625 -30.820312 27.84375 -28.0625 28.15625 -24.3125 C 28.195312 -23.644531 28.21875 -22.984375 28.21875 -22.328125 C 28.21875 -20.554688 27.972656 -18.65625 27.484375 -16.625 C 27.003906 -14.59375 26.007812 -12.78125 24.5 -11.1875 C 23.269531 -9.863281 22.054688 -8.90625 20.859375 -8.3125 C 19.671875 -7.71875 18.28125 -7.375 16.6875 -7.28125 C 16.207031 -7.238281 15.765625 -7.21875 15.359375 -7.21875 C 15.015625 -7.21875 14.664062 -7.25 14.3125 -7.3125 C 13.957031 -7.382812 13.359375 -7.597656 12.515625 -7.953125 C 11.328125 -8.429688 10.6875 -8.671875 10.59375 -8.671875 C 10.46875 -8.671875 10.335938 -6.578125 10.203125 -2.390625 C 10.109375 0.128906 9.953125 2.019531 9.734375 3.28125 C 9.515625 4.539062 9.207031 5.210938 8.8125 5.296875 C 8.414062 5.335938 7.953125 5.492188 7.421875 5.765625 C 6.753906 6.023438 6.046875 6.15625 5.296875 6.15625 L 4.109375 6.15625 L 3.90625 3.84375 C 3.550781 -0.132812 3.351562 -2.6875 3.3125 -3.8125 C 3.269531 -4.9375 3.25 -6.003906 3.25 -7.015625 C 3.25 -8.347656 3.269531 -9.695312 3.3125 -11.0625 C 3.53125 -13.75 3.6875 -17.921875 3.78125 -23.578125 C 3.78125 -24.242188 3.78125 -24.84375 3.78125 -25.375 C 3.78125 -27.445312 3.710938 -28.59375 3.578125 -28.8125 C 3.578125 -28.851562 3.554688 -28.875 3.515625 -28.875 C 3.460938 -28.875 3.394531 -28.851562 3.3125 -28.8125 C 3.132812 -28.8125 3.023438 -28.820312 2.984375 -28.84375 C 2.941406 -28.863281 2.921875 -28.941406 2.921875 -29.078125 C 3.046875 -29.429688 3.195312 -29.960938 3.375 -30.671875 C 3.550781 -31.242188 3.738281 -31.640625 3.9375 -31.859375 C 4.132812 -32.078125 4.585938 -32.363281 5.296875 -32.71875 C 5.910156 -33.03125 6.347656 -33.21875 6.609375 -33.28125 C 6.878906 -33.34375 7.101562 -33.375 7.28125 -33.375 C 7.5 -33.375 7.695312 -33.351562 7.875 -33.3125 C 8.675781 -33.132812 9.285156 -32.847656 9.703125 -32.453125 C 10.117188 -32.054688 10.328125 -31.550781 10.328125 -30.9375 C 10.328125 -30.269531 10.367188 -29.9375 10.453125 -29.9375 C 10.546875 -29.9375 11.101562 -30.488281 12.125 -31.59375 C 13.132812 -32.695312 14.210938 -33.535156 15.359375 -34.109375 Z M 17.28125 -28.28125 C 16.40625 -28.945312 15.566406 -29.28125 14.765625 -29.28125 C 13.535156 -29.28125 12.390625 -28.53125 11.328125 -27.03125 C 10.972656 -26.539062 10.757812 -26.050781 10.6875 -25.5625 C 10.625 -25.082031 10.59375 -23.828125 10.59375 -21.796875 C 10.59375 -20.160156 10.632812 -18.664062 10.71875 -17.3125 C 10.8125 -15.96875 10.957031 -15.085938 11.15625 -14.671875 C 11.351562 -14.253906 11.71875 -13.867188 12.25 -13.515625 C 12.875 -13.066406 13.5625 -12.84375 14.3125 -12.84375 C 14.832031 -12.84375 15.585938 -13.039062 16.578125 -13.4375 C 17.578125 -13.84375 18.429688 -14.75 19.140625 -16.15625 C 19.804688 -18.0625 20.148438 -19.273438 20.171875 -19.796875 C 20.191406 -20.328125 20.203125 -21.101562 20.203125 -22.125 C 20.203125 -23.625 19.9375 -24.859375 19.40625 -25.828125 C 18.875 -26.796875 18.164062 -27.613281 17.28125 -28.28125 Z M 17.28125 -28.28125 "/></g></g></g><g clip-path="url(#b3540fc8cc)"><g clip-path="url(#081bd3548c)"><path fill="url(#8337375577)" d="M 39.375 26.386719 L 39.375 67.972656 L 81.121094 67.972656 L 81.121094 26.386719 Z M 39.375 26.386719 " fill-rule="nonzero"/></g></g></svg>